#!OML:ASF Y:\EmotionMaleHayes\Project 1\Capture day 1\Session 1\Male1.ASF
:FULLY-SPECIFIED
:DEGREES
377
root -14.679 17.7904 2.56218 -39.8258 45.4434 -46.4531
lowerback 20.8551 -0.633905 -6.26273
upperback 8.47036 -1.79327 -2.8693
thorax -2.32097 -0.835319 0.88072
lowerneck -15.8466 13.9324 12.4215
upperneck 14.7871 17.5733 -7.10187
head 8.92611 8.32323 -1.93577
rclavicle -2.8625e-014 -3.81667e-014
rhumerus -16.1942 2.9354 0.135695
rradius 39.0032
rwrist -19.2921
rhand -16.4514 -37.734
rfingers 7.12502
rthumb 9.76468 -67.4876
lclavicle -2.8625e-014 -3.81667e-014
lhumerus 22.676 -4.58867 40.784
lradius 26.05
lwrist -3.35564
lhand -20.9911 -19.6773
lfingers 7.12502
lthumb 5.38295 10.2343
rfemur -14.8162 -16.3532 -13.9154
rtibia 15.5644
rfoot -25.0817 -25.2531
rtoes 17.0866
lfemur -4.48634 25.1635 2.04066
ltibia 22.3325
lfoot -27.1604 23.5165
ltoes 27.6274
378
root -14.54 17.6033 2.52089 -40.3757 45.5882 -46.842
lowerback 21.0801 -0.880923 -5.71986
upperback 8.55771 -2.01376 -2.70959
thorax -2.34795 -0.936226 0.797418
lowerneck -15.2235 13.9105 12.2172
upperneck 14.2637 17.6723 -7.36277
head 8.6584 8.36097 -2.02862
rclavicle 1.11319e-014 1.27222e-014
rhumerus -14.9824 2.17745 1.89554
rradius 38.7796
rwrist -18.6017
rhand -16.7737 -37.6524
rfingers 7.12502
rthumb 9.45372 -67.4204
lclavicle 1.11319e-014 1.27222e-014
lhumerus 23.6405 -4.61433 43.2488
lradius 26.1231
lwrist -3.34006
lhand -21.4448 -19.908
lfingers 7.12502
lthumb 4.9449 10.0143
rfemur -15.6719 -15.6262 -13.6226
rtibia 16.8282
rfoot -24.6574 -24.6838
rtoes 18.4031
lfemur -4.09863 24.4186 1.45372
ltibia 22.2632
lfoot -28.7274 23.584
ltoes 28.6835
379
root -14.4249 17.4149 2.4822 -41.0596 45.6873 -47.4494
lowerback 21.5095 -1.12029 -5.23281
upperback 8.62167 -2.24444 -2.47743
thorax -2.49834 -1.04097 0.830978
lowerneck -14.7096 13.9206 11.9197
upperneck 13.7101 17.7716 -7.40344
head 8.36968 8.41382 -2.0334
rclavicle 1.27222e-014 1.90833e-014
rhumerus -13.7793 1.12211 3.52695
rradius 38.5761
rwrist -17.6182
rhand -16.8156 -37.6163
rfingers 7.12502
rthumb 9.41322 -67.3861
lclavicle 1.27222e-014 1.90833e-014
lhumerus 24.6156 -4.54593 45.8605
lradius 26.1273
lwrist -3.44379
lhand -21.9724 -20.1139
lfingers 7.12502
lthumb 4.43545 9.81964
rfemur -16.7549 -14.6095 -12.9336
rtibia 18.3776
rfoot -23.8455 -24.251
rtoes 17.9802
lfemur -3.93362 23.7045 1.28612
ltibia 22.6105
lfoot -29.3367 23.5002
ltoes 27.905
380
root -14.3268 17.2256 2.4444 -41.7407 45.9946 -48.188
lowerback 21.9065 -1.33712 -4.77413
upperback 8.78587 -2.43615 -2.39048
thorax -2.5304 -1.1251 0.715841
lowerneck -14.8357 13.884 12.0069
upperneck 13.511 17.6582 -7.36161
head 8.3167 8.36817 -2.04758
rclavicle 2.54444e-014 -3.49861e-014
rhumerus -13.0696 -0.344407 4.80602
rradius 38.3824
rwrist -16.6217
rhand -16.9127 -37.5689
rfingers 7.12502
rthumb 9.31955 -67.3429
lclavicle 2.54444e-014 -3.49861e-014
lhumerus 26.1224 -4.62069 48.3872
lradius 26.0782
lwrist -3.21319
lhand -22.0536 -20.3401
lfingers 7.12502
lthumb 4.35697 9.5951
rfemur -18.0042 -13.8788 -12.1876
rtibia 20.2933
rfoot -22.6726 -23.5225
rtoes 15.7495
lfemur -4.35566 22.9928 1.0369
ltibia 23.8511
lfoot -29.9575 22.8482
ltoes 26.6194
381
root -14.2428 17.0384 2.4035 -42.0172 46.7568 -48.6901
lowerback 22.2549 -1.60952 -4.88241
upperback 8.80654 -2.82079 -2.3129
thorax -2.65419 -1.31326 0.957921
lowerneck -14.9849 13.7852 11.8643
upperneck 13.5941 17.5135 -7.2207
head 8.32915 8.30113 -1.99643
rclavicle 4.77083e-015 -6.36111e-015
rhumerus -12.0549 -1.90922 5.88077
rradius 38.0522
rwrist -15.6789
rhand -17.2812 -37.2588
rfingers 7.12502
rthumb 8.96404 -67.0484
lclavicle 4.77083e-015 -6.36111e-015
lhumerus 27.3248 -4.70492 51.0149
lradius 26.1222
lwrist -2.76605
lhand -22.049 -20.3724
lfingers 7.12502
lthumb 4.36146 9.56265
rfemur -19.5868 -13.7416 -11.8069
rtibia 22.6569
rfoot -21.5326 -22.2238
rtoes 13.9897
lfemur -5.69338 22.2869 0.0613796
ltibia 26.0402
lfoot -31.094 21.7498
ltoes 25.7093
382
root -14.1021 16.8656 2.35649 -41.2634 47.2998 -47.1083
lowerback 22.7221 -1.37832 -5.95117
upperback 8.93468 -2.75894 -2.56461
thorax -2.69716 -1.29134 1.28598
lowerneck -15.1654 13.8856 11.935
upperneck 13.6826 17.6115 -7.16799
head 8.39956 8.34813 -1.95916
rclavicle -5.24792e-014 4.13472e-014
rhumerus -11.1046 -3.26818 6.76691
rradius 37.7271
rwrist -14.8834
rhand -18.2468 -36.9808
rfingers 7.12502
rthumb 8.03213 -66.8081
lclavicle -5.24792e-014 4.13472e-014
lhumerus 28.2871 -5.41975 53.2182
lradius 26.3894
lwrist -1.77476
lhand -22.5966 -20.4292
lfingers 7.12502
lthumb 3.83262 9.51604
rfemur -21.3245 -13.1621 -12.1387
rtibia 25.3248
rfoot -19.6504 -20.28
rtoes 9.44831
lfemur -5.62033 21.931 -1.72637
ltibia 27.7135
lfoot -32.9572 20.9
ltoes 26.6065
383
root -13.9849 16.7176 2.31739 -39.7031 48.4904 -44.9378
lowerback 22.7259 -1.15744 -7.62623
upperback 9.19425 -2.79833 -3.23928
thorax -2.33698 -1.33429 1.5026
lowerneck -15.2747 13.9545 12.1899
upperneck 13.2269 17.5687 -7.01901
head 8.26768 8.35755 -1.95813
rclavicle 5.24792e-014 -4.45278e-014
rhumerus -10.6758 -4.89442 6.98414
rradius 37.5262
rwrist -14.0128
rhand -19.4735 -36.964
rfingers 7.12502
rthumb 6.84808 -66.8333
lclavicle 5.24792e-014 -4.45278e-014
lhumerus 29.5443 -6.75835 54.3699
lradius 26.9216
lwrist -0.203237
lhand -23.4108 -20.5332
lfingers 7.12502
lthumb 3.04636 9.42474
rfemur -23.4158 -12.849 -12.9916
rtibia 28.3343
rfoot -18.0213 -18.473
rtoes 3.6384
lfemur -6.23522 21.9312 -4.62001
ltibia 29.4799
lfoot -34.3813 20.4066
ltoes 27.2852
